 Full Credits To Feel Free :)

 ######## ######## ######## ##          ######## ########  ######## ######## 
 ##       ##       ##       ##          ##       ##     ## ##       ##       
 ##       ##       ##       ##          ##       ##     ## ##       ##       
 ######   ######   ######   ##          ######   ########  ######   ######   
 ##       ##       ##       ##          ##       ##   ##   ##       ##       
 ##       ##       ##       ##          ##       ##    ##  ##       ##       
 ##       ######## ######## ########    ##       ##     ## ######## ########


 Genre:Thriller
 Language:English  http://www.imdb.com/title/tt1535606/
 Source:DVD Thanks!

 Format : AVI
 Format/Info : Audio Video Interleave
 File size : 994 MiB
 Duration : 1h 22mn
 Overall bit rate : 1 681 Kbps

 Video
 ID : 0
 Format : MPEG-4 Visual
 Format profile : Advanced Simple@L5
 Format settings, BVOP : Yes
 Format settings, QPel : No
 Format settings, GMC : No warppoints
 Format settings, Matrix : Default (H.263)
 Codec ID : XVID
 Codec ID/Hint : XviD
 Duration : 1h 22mn
 Bit rate : 1 222 Kbps
 Width : 640 pixels
 Height : 360 pixels
 Display aspect ratio : 16:9
 Frame rate : 29.970 fps
 Color space : YUV
 Chroma subsampling : 4:2:0
 Bit depth : 8 bits
 Scan type : Progressive
 Bits/(Pixel*Frame) : 0.177
 Stream size : 723 MiB (73%)
 Writing library : XviD 1.2.1 (UTC 2008-12-04)

 Audio
 ID : 1
 Format : AC-3
 Format/Info : Audio Coding 3
 Mode extension : CM (complete main)
 Codec ID : 2000
 Duration : 1h 22mn
 Bit rate mode : Constant
 Bit rate : 448 Kbps
 Channel(s) : 2 channels
 Channel positions : Front: L R
 Sampling rate : 48.0 KHz
 Bit depth : 16 bits
 Stream size : 265 MiB (27%)
 Alignment : Aligned on interleaves
 Interleave, duration : 33 ms (1.00 video frame)
 Interleave, preload duration : 512 ms


 Plot:
 After returning to civilian life as a Texas rancher, Captain Lance Deakin fends 
 off attacks from former..


 Screen Shots:
  http://leetleech.org/images/17344442018510306405.png
  http://leetleech.org/images/46225258373970983407.png
  http://leetleech.org/images/31411953427810658637.png
  http://leetleech.org/images/13813628896401557512.png


 Full Credits To Feel Free :)

 ######## ######## ######## ##          ######## ########  ######## ######## 
 ##       ##       ##       ##          ##       ##     ## ##       ##       
 ##       ##       ##       ##          ##       ##     ## ##       ##       
 ######   ######   ######   ##          ######   ########  ######   ######   
 ##       ##       ##       ##          ##       ##   ##   ##       ##       
 ##       ##       ##       ##          ##       ##    ##  ##       ##       
 ##       ######## ######## ########    ##       ##     ## ######## ########